<?xml version="1.0" encoding="UTF-8" standalone="no"?>
<!DOCTYPE svg PUBLIC "-//W3C//DTD SVG 1.1//EN"
 "http://www.w3.org/Graphics/SVG/1.1/DTD/svg11.dtd">
<!-- Generated by graphviz version 2.42.3 ()
 -->
<!-- Title: %3 Pages: 1 -->
<svg width="752pt" height="404pt"
 viewBox="0.00 0.00 751.67 404.00" xmlns="http://www.w3.org/2000/svg" xmlns:xlink="http://www.w3.org/1999/xlink">
<g id="graph0" class="graph" transform="scale(1 1) rotate(0) translate(4 400)">
<title>%3</title>
<polygon fill="white" stroke="transparent" points="-4,4 -4,-400 747.67,-400 747.67,4 -4,4"/>
<!-- [root] aws_instance.web -->
<g id="node1" class="node">
<title>[root] aws_instance.web</title>
<polygon fill="none" stroke="black" points="412.83,-180 275.83,-180 275.83,-144 412.83,-144 412.83,-180"/>
<text text-anchor="middle" x="344.33" y="-158.3" font-family="Times,serif" font-size="14.00">aws_instance.web</text>
</g>
<!-- [root] data.aws_ami.ubuntu -->
<g id="node2" class="node">
<title>[root] data.aws_ami.ubuntu</title>
<polygon fill="none" stroke="black" points="423.83,-108 264.83,-108 264.83,-72 423.83,-72 423.83,-108"/>
<text text-anchor="middle" x="344.33" y="-86.3" font-family="Times,serif" font-size="14.00">data.aws_ami.ubuntu</text>
</g>
<!-- [root] aws_instance.web&#45;&gt;[root] data.aws_ami.ubuntu -->
<g id="edge1" class="edge">
<title>[root] aws_instance.web&#45;&gt;[root] data.aws_ami.ubuntu</title>
<path fill="none" stroke="black" d="M344.33,-143.7C344.33,-135.98 344.33,-126.71 344.33,-118.11"/>
<polygon fill="black" stroke="black" points="347.83,-118.1 344.33,-108.1 340.83,-118.1 347.83,-118.1"/>
</g>
<!-- [root] provider.aws -->
<g id="node4" class="node">
<title>[root] provider.aws</title>
<polygon fill="none" stroke="black" points="344.33,-36 246.13,-18 344.33,0 442.53,-18 344.33,-36"/>
<text text-anchor="middle" x="344.33" y="-14.3" font-family="Times,serif" font-size="14.00">provider.aws</text>
</g>
<!-- [root] data.aws_ami.ubuntu&#45;&gt;[root] provider.aws -->
<g id="edge2" class="edge">
<title>[root] data.aws_ami.ubuntu&#45;&gt;[root] provider.aws</title>
<path fill="none" stroke="black" d="M344.33,-71.7C344.33,-63.98 344.33,-54.71 344.33,-46.11"/>
<polygon fill="black" stroke="black" points="347.83,-46.1 344.33,-36.1 340.83,-46.1 347.83,-46.1"/>
</g>
<!-- [root] output.ip_address -->
<g id="node3" class="node">
<title>[root] output.ip_address</title>
<polygon fill="none" stroke="black" points="286.33,-252 148.33,-252 148.33,-216 292.33,-216 292.33,-246 286.33,-252"/>
<polyline fill="none" stroke="black" points="286.33,-252 286.33,-246 "/>
<polyline fill="none" stroke="black" points="292.33,-246 286.33,-246 "/>
<text text-anchor="middle" x="220.33" y="-230.3" font-family="Times,serif" font-size="14.00">output.ip_address</text>
</g>
<!-- [root] output.ip_address&#45;&gt;[root] aws_instance.web -->
<g id="edge5" class="edge">
<title>[root] output.ip_address&#45;&gt;[root] aws_instance.web</title>
<path fill="none" stroke="black" d="M250.66,-215.88C267.03,-206.64 287.41,-195.13 304.98,-185.21"/>
<polygon fill="black" stroke="black" points="306.89,-188.15 313.88,-180.19 303.45,-182.06 306.89,-188.15"/>
</g>
<!-- [root] var.hash_commit -->
<g id="node5" class="node">
<title>[root] var.hash_commit</title>
<polygon fill="none" stroke="black" points="433.83,-252 310.83,-252 310.83,-216 439.83,-216 439.83,-246 433.83,-252"/>
<polyline fill="none" stroke="black" points="433.83,-252 433.83,-246 "/>
<polyline fill="none" stroke="black" points="439.83,-246 433.83,-246 "/>
<text text-anchor="middle" x="375.33" y="-230.3" font-family="Times,serif" font-size="14.00">var.hash_commit</text>
</g>
<!-- [root] meta.count&#45;boundary (EachMode fixup) -->
<g id="node6" class="node">
<title>[root] meta.count&#45;boundary (EachMode fixup)</title>
<ellipse fill="none" stroke="black" cx="220.33" cy="-306" rx="220.16" ry="18"/>
<text text-anchor="middle" x="220.33" y="-302.3" font-family="Times,serif" font-size="14.00">[root] meta.count&#45;boundary (EachMode fixup)</text>
</g>
<!-- [root] meta.count&#45;boundary (EachMode fixup)&#45;&gt;[root] output.ip_address -->
<g id="edge3" class="edge">
<title>[root] meta.count&#45;boundary (EachMode fixup)&#45;&gt;[root] output.ip_address</title>
<path fill="none" stroke="black" d="M220.33,-287.7C220.33,-279.98 220.33,-270.71 220.33,-262.11"/>
<polygon fill="black" stroke="black" points="223.83,-262.1 220.33,-252.1 216.83,-262.1 223.83,-262.1"/>
</g>
<!-- [root] meta.count&#45;boundary (EachMode fixup)&#45;&gt;[root] var.hash_commit -->
<g id="edge4" class="edge">
<title>[root] meta.count&#45;boundary (EachMode fixup)&#45;&gt;[root] var.hash_commit</title>
<path fill="none" stroke="black" d="M257.46,-288.23C278.71,-278.63 305.58,-266.5 328.3,-256.24"/>
<polygon fill="black" stroke="black" points="329.76,-259.42 337.43,-252.12 326.88,-253.04 329.76,-259.42"/>
</g>
<!-- [root] provider.aws (close) -->
<g id="node7" class="node">
<title>[root] provider.aws (close)</title>
<ellipse fill="none" stroke="black" cx="601.33" cy="-306" rx="142.17" ry="18"/>
<text text-anchor="middle" x="601.33" y="-302.3" font-family="Times,serif" font-size="14.00">[root] provider.aws (close)</text>
</g>
<!-- [root] provider.aws (close)&#45;&gt;[root] aws_instance.web -->
<g id="edge6" class="edge">
<title>[root] provider.aws (close)&#45;&gt;[root] aws_instance.web</title>
<path fill="none" stroke="black" d="M573.68,-288.29C543.23,-270.04 492.71,-240.19 448.33,-216 428.85,-205.38 407,-194.15 388.38,-184.77"/>
<polygon fill="black" stroke="black" points="389.76,-181.54 379.25,-180.19 386.62,-187.8 389.76,-181.54"/>
</g>
<!-- [root] root -->
<g id="node8" class="node">
<title>[root] root</title>
<ellipse fill="none" stroke="black" cx="410.33" cy="-378" rx="64.19" ry="18"/>
<text text-anchor="middle" x="410.33" y="-374.3" font-family="Times,serif" font-size="14.00">[root] root</text>
</g>
<!-- [root] root&#45;&gt;[root] meta.count&#45;boundary (EachMode fixup) -->
<g id="edge7" class="edge">
<title>[root] root&#45;&gt;[root] meta.count&#45;boundary (EachMode fixup)</title>
<path fill="none" stroke="black" d="M372.79,-363.17C344.86,-352.88 306.31,-338.68 274.96,-327.13"/>
<polygon fill="black" stroke="black" points="276.08,-323.81 265.49,-323.64 273.66,-330.38 276.08,-323.81"/>
</g>
<!-- [root] root&#45;&gt;[root] provider.aws (close) -->
<g id="edge8" class="edge">
<title>[root] root&#45;&gt;[root] provider.aws (close)</title>
<path fill="none" stroke="black" d="M448.07,-363.17C476.54,-352.73 515.99,-338.28 547.73,-326.64"/>
<polygon fill="black" stroke="black" points="549.13,-329.86 557.31,-323.13 546.72,-323.29 549.13,-329.86"/>
</g>
</g>
</svg>
